<svg width="1486" height="233" viewBox="0 0 1486 233" fill="none" xmlns="http://www.w3.org/2000/svg">
<path d="M1203.99 165.778C1213.3 191.249 1232.86 205.63 1257.56 213.301C1288.93 223.04 1319.83 221.009 1348.8 204.766C1357.06 200.133 1363.99 193.047 1371.25 186.759C1373.4 184.896 1374.87 184.472 1377.27 185.866C1389.19 192.798 1390.67 189.987 1379.5 200.815C1363.51 216.304 1343.91 225.252 1322.24 229.276C1283.64 236.446 1247.31 231.115 1215.08 207.251C1200.21 196.237 1189.72 181.905 1185.51 162.698C1185.55 159.706 1185.55 157.535 1185.55 155.363C1184.88 155.406 1184.21 155.449 1183.54 155.492C1183.81 157.893 1184.07 160.295 1184.34 162.696C1184.34 183.287 1184.34 203.878 1184.34 224.725C1178.6 224.725 1173.17 224.725 1167.08 224.725C1167.08 215.603 1167.08 206.455 1167.08 195.958C1155.91 208.426 1143.73 217.332 1129.45 222.693C1086.11 238.965 1044.92 235.626 1007.29 207.196C993.372 196.686 984.03 182.622 979.677 164.749C979.288 161.602 978.907 159.22 978.435 156.655C978.095 156.643 977.846 156.813 977.645 157.422C977.758 160.221 977.823 162.582 977.887 164.943C977.887 184.748 977.887 204.554 977.887 224.671C972.022 224.671 966.473 224.671 960.526 224.671C960.526 215.49 960.526 206.421 960.526 196.405C933.071 224.938 899.655 235.193 862.043 231.433C824.309 227.661 793.967 211.148 775.449 174.63C775.449 192.174 775.449 208.335 775.449 224.734C769.285 224.734 763.693 224.734 757.499 224.734C757.499 222.901 757.493 221.134 757.5 219.367C757.608 190.374 757.017 161.356 758.019 132.394C759.075 101.886 742.562 88.4474 720.207 83.5344C693.671 77.7024 667.556 77.6795 643.086 91.4403C627.167 100.392 618.048 113.258 618.515 132.725C619.246 163.193 618.709 193.692 618.709 224.58C612.854 224.58 607.14 224.58 600.886 224.58C600.886 222.79 600.886 221 600.886 219.21C600.886 190.55 600.22 161.87 601.075 133.235C601.914 105.118 589.923 89.451 562.62 83.3686C536.685 77.5911 510.936 77.6942 486.881 91.0908C470.538 100.193 461.455 113.369 462.017 133.207C462.828 161.844 462.225 190.522 462.225 219.182C462.225 220.972 462.225 222.761 462.225 224.765C456.109 224.765 450.515 224.765 444.636 224.765C444.636 173.67 444.636 122.774 444.636 71.5789C450.283 71.5789 455.871 71.5789 461.953 71.5789C461.953 77.5121 461.953 83.4227 461.953 89.833C463.104 89.4103 463.757 89.3341 464.195 88.9861C486.662 71.1014 512.731 65.8522 540.664 67.1913C555.712 67.9127 570.438 70.2105 584.376 76.3261C595.309 81.1237 604.449 88.0576 610.912 98.2177C611.277 98.1773 611.725 98.2644 611.876 98.0917C630.688 76.5033 655.553 68.493 683.02 67.153C702.768 66.1896 722.339 68.0612 740.809 75.9144C761.19 84.5806 773.426 99.506 775.186 122.127C775.237 122.784 775.405 123.433 775.546 124.079C775.568 124.179 775.736 124.247 776.223 124.645C780.717 114.035 787.212 104.876 795.547 97.1199C812.274 81.5541 832.247 72.6504 854.684 69.2872C888.439 64.2276 919.573 70.6275 947.245 91.3036C949.508 92.9942 951.579 94.9455 953.7 96.82C955.807 98.6826 957.865 100.601 960.288 102.807C960.288 93.3774 960.288 84.0269 960.288 74.4069C966.266 74.4069 971.7 74.4069 977.833 74.4069C977.833 94.1799 977.833 113.933 977.702 134.56C977.57 137.745 977.57 140.056 977.57 142.368C977.889 142.382 978.208 142.396 978.526 142.41C978.87 139.868 979.213 137.325 979.556 134.782C987.664 105.094 1008.1 86.6874 1035.73 76.2975C1075.78 61.2384 1114.45 64.7314 1150.41 88.9149C1156.14 92.7653 1161.05 97.8223 1166.69 102.622C1166.69 68.5323 1166.69 34.4145 1166.69 0C1172.86 0 1178.41 0 1184.47 0C1184.47 45.0317 1184.47 89.9459 1184.19 135.615C1183.91 138.955 1183.91 141.54 1183.91 144.125C1184.47 144.14 1185.02 144.155 1185.57 144.17C1185.57 141.403 1185.57 138.635 1185.57 135.868C1192.49 109.066 1210.48 91.5611 1234.72 80.7897C1281.43 60.0304 1326.98 62.5862 1370.09 91.1859C1380.92 98.369 1389.23 108.148 1395.59 119.567C1397.1 122.29 1396.91 123.929 1394.78 126.444C1390.9 131.043 1386.56 132.527 1380.54 132.501C1323.87 132.265 1267.2 132.354 1210.54 132.391C1208.59 132.392 1206.65 132.833 1204.14 133.467C1203.52 134.483 1203.45 135.101 1203.38 135.718C1203.36 136.204 1203.34 136.689 1202.86 137.54C1202.41 138.515 1202.43 139.126 1202.44 139.736C1202.42 140.505 1202.4 141.275 1201.88 142.545C1201.57 147.29 1201.76 151.534 1201.95 155.778C1202.16 156.849 1202.38 157.92 1202.32 159.532C1202.32 160.642 1202.6 161.21 1202.88 161.778C1203.08 162.22 1203.27 162.662 1203.22 163.619C1203.31 164.682 1203.65 165.23 1203.99 165.778ZM997.589 132.872C997.548 133.497 997.508 134.122 997.572 135.451C997.403 135.889 997.235 136.326 996.559 136.879C996.538 137.505 996.516 138.13 996.629 139.52C996.455 140.268 996.282 141.016 995.44 142.003C995.446 144.25 995.452 146.497 995.692 149.489C995.619 150.257 995.546 151.025 994.953 152.282C995.32 154.114 995.687 155.946 996.393 158.483C996.407 159.257 996.421 160.031 996.03 161.086C996.338 161.651 996.646 162.215 997.349 163.387C997.367 163.863 997.385 164.339 996.963 165.226C997.643 166.744 998.324 168.261 999.484 170.371C1003.24 180.224 1009.3 188.488 1017.06 195.519C1030.27 207.48 1045.95 214.162 1063.36 217.314C1100.55 224.049 1144.66 209.125 1162.58 173.572C1162.86 172.524 1163.14 171.475 1163.4 169.677C1171.32 145.969 1165.74 125.297 1148.78 107.585C1133.24 91.3599 1113.59 83.5258 1091.53 81.2653C1052.18 77.2331 1010.61 96.3032 997.589 132.872ZM861.059 217.908C888.919 221.215 914.534 215.6 936.473 197.568C967.406 172.144 968.498 131.975 939.441 104.698C905.598 72.9281 844.377 72.7594 810.364 104.342C781.432 131.207 782.227 171.467 812.293 197.096C826.108 208.872 842.298 215.337 861.059 217.908ZM1344.51 92.255C1343.3 91.7182 1342.09 91.1566 1340.86 90.6481C1304.95 75.7795 1269.85 77.004 1235.83 96.2833C1226.26 101.707 1218.22 109.013 1211.84 118.376C1266.52 118.376 1320.65 118.376 1375.28 118.376C1367.23 106.771 1357.05 98.704 1344.51 92.255Z" fill="#060606"/>
<path d="M216.471 165.747C212.719 180.472 204.233 192.221 193.03 202.06C175.515 217.444 154.746 225.857 131.899 229.275C97.7107 234.388 65.6233 228.631 36.3436 209.745C25.8962 203.006 17.1155 194.42 9.90887 182.691C9.72814 185.2 9.54728 186.563 9.5448 187.925C9.52237 200.252 9.44743 212.58 9.58315 224.905C9.62252 228.481 8.62642 230.884 4.75755 230.914C0.763843 230.944 -0.00283017 228.329 7.83468e-06 224.861C0.0501828 163.559 0.0520904 102.258 0.000778404 40.9566C-0.0023606 37.208 1.01593 34.7044 5.21617 34.7602C9.55902 34.8179 9.56135 37.845 9.55481 41.0569C9.50901 63.5451 9.53108 86.0334 9.53142 108.522C9.53144 110.148 9.53142 111.774 9.53142 113.377C10.1265 113.377 10.5809 113.492 10.6689 113.361C27.7148 87.9668 52.7822 75.0601 81.7365 69.4031C118.65 62.191 153.752 67.5148 185.238 89.1329C201.489 100.291 212.992 115.352 217.266 135.66C217.164 142.269 217.307 148.236 217.594 154.197C217.653 155.41 218.25 156.597 218.598 157.796C218.216 159.546 217.834 161.296 217.014 163.457C216.541 164.494 216.506 165.12 216.471 165.747ZM114.008 73.3753C108.519 73.5427 103.003 73.4212 97.5456 73.927C72.5178 76.2464 49.8047 84.4301 31.2265 101.867C1.39635 129.864 2.41063 170.435 33.3342 197.216C49.3748 211.108 68.1193 219.218 88.9587 222.283C121.816 227.116 152.717 221.917 180.101 202.181C196.377 190.45 207.764 175.094 209.605 154.414C211.964 127.927 199.214 108.551 178.693 93.8481C159.802 80.3121 138.13 74.3024 114.008 73.3753Z" fill="#0A0A0A"/>
<path d="M218.97 157.943C218.25 156.597 217.653 155.41 217.594 154.197C217.307 148.236 217.164 142.269 217.219 136.051C217.855 136.688 218.242 137.58 218.924 139.152C223.236 125.553 229.12 113.397 238.81 103.371C257.612 83.9201 280.948 73.5996 307.241 69.2798C339.875 63.918 370.491 69.4368 398.773 86.8167C400.439 87.8408 401.568 89.7401 402.947 91.2321C401.314 92.4062 399.844 94.0423 398.024 94.6871C348.69 112.158 299.32 129.526 249.958 146.919C242.917 149.4 235.891 151.924 228 154.733C229.413 159.705 230.384 164.743 232.252 169.423C241.934 193.682 259.962 209.673 284.12 218.084C322.369 231.4 359.691 227.773 394.733 207.542C416.611 194.912 429.68 176.035 429.156 149.619C429.086 146.123 430.925 144.78 434.036 144.754C437.345 144.726 438.67 146.511 438.708 149.817C438.952 171.033 430.301 188.306 414.847 202.2C395.085 219.966 371.29 228.791 345.168 231.381C318.568 234.019 292.638 231.377 268.287 219.298C243.887 207.195 227.738 188.036 219.663 162.061C219.278 160.824 219.436 159.418 218.97 157.943ZM347.243 75.4125C325.176 72.4053 303.854 75.1305 283.084 83.2037C265.747 89.9427 251.221 100.293 239.925 115.096C232.905 124.296 228.85 134.61 227.91 146.89C282.075 127.917 335.567 109.18 389.665 90.2314C376.375 82.5038 362.833 77.4064 347.243 75.4125Z" fill="#0C0C0C"/>
<path d="M1479.27 65.0463C1481.52 74.9853 1483.67 84.5393 1485.82 94.0932C1485.37 94.4334 1484.93 94.7735 1484.49 95.1137C1483.56 93.9023 1482.12 92.8184 1481.78 91.4583C1479.95 84.2368 1478.39 76.9459 1476.42 68.308C1472.7 76.0951 1469.66 82.6904 1466.37 89.1601C1465.65 90.5728 1464.08 92.4199 1462.85 92.4618C1461.59 92.5045 1459.86 90.8078 1459.06 89.4476C1455.23 82.9562 1451.65 76.3202 1446.75 69.9838C1445.45 77.268 1444.23 84.5659 1442.8 91.8235C1442.55 93.076 1441.44 94.1573 1440.72 95.3176C1440.15 95.0637 1439.59 94.8098 1439.02 94.5559C1440.65 84.6244 1442.26 74.6874 1443.99 64.7726C1444.12 64.0364 1445.37 62.8068 1445.73 62.9263C1446.99 63.3433 1448.55 63.978 1449.16 65.0195C1452.95 71.4745 1456.5 78.0676 1460.15 84.6025C1460.77 85.7085 1461.49 86.7549 1462.8 88.8392C1466.72 80.5905 1470.23 73.1747 1473.77 65.7758C1475.06 63.0839 1476.47 60.6289 1479.27 65.0463Z" fill="#212121"/>
<path d="M1390.63 232.663C1389.57 232.545 1388.9 232.494 1388.27 232.318C1382.57 230.726 1379.42 227.526 1379.61 223.537C1379.8 219.455 1383.96 216.008 1389.48 215.35C1395.03 214.688 1400.5 217.437 1401.73 221.689C1403 226.073 1400.98 229.16 1397.21 231.039C1395.35 231.97 1393.11 232.152 1390.63 232.663Z" fill="#0A0A0A"/>
<path d="M1422.44 62.5543C1426.03 62.5544 1429.14 62.5544 1432.25 62.5544C1432.26 63.2371 1432.28 63.9199 1432.29 64.6026C1427.85 64.6026 1423.42 64.6026 1417.88 64.6026C1417.88 73.7906 1417.95 82.2214 1417.8 90.6479C1417.78 91.9416 1416.7 93.2159 1416.1 94.4993C1415.55 93.1615 1414.55 91.8318 1414.52 90.4846C1414.37 82.2136 1414.45 73.9385 1414.45 64.8799C1409.72 64.8799 1405.1 64.8799 1400.47 64.8799C1400.46 64.2407 1400.44 63.6015 1400.43 62.9623C1407.55 62.0427 1414.79 62.8076 1422.44 62.5543Z" fill="#212121"/>
<path d="M1202.03 155.32C1201.76 151.534 1201.57 147.29 1201.73 142.905C1202.09 146.797 1202.1 150.829 1202.03 155.32Z" fill="#070707"/>
<path d="M1185.3 135.841C1185.57 138.635 1185.57 141.403 1185.57 144.17C1185.02 144.155 1184.47 144.14 1183.91 144.125C1183.91 141.54 1183.91 138.955 1184.19 136.085C1184.65 135.805 1184.84 135.81 1185.3 135.841Z" fill="#070707"/>
<path d="M1184.65 162.542C1184.07 160.295 1183.81 157.893 1183.54 155.492C1184.21 155.449 1184.88 155.406 1185.55 155.363C1185.55 157.535 1185.55 159.706 1185.55 162.312C1185.35 162.627 1185.15 162.508 1184.65 162.542Z" fill="#070707"/>
<path d="M979.271 134.792C979.213 137.325 978.87 139.868 978.526 142.41C978.208 142.396 977.889 142.382 977.57 142.368C977.57 140.056 977.57 137.745 977.728 135.017C978.253 134.668 978.62 134.734 979.271 134.792Z" fill="#9E9E9E"/>
<path d="M978.526 156.837C978.907 159.22 979.288 161.602 979.588 164.388C979.151 164.861 978.794 164.932 978.163 164.972C977.823 162.582 977.758 160.221 977.865 157.309C978.037 156.758 978.526 156.837 978.526 156.837Z" fill="#9F9F9F"/>
<path d="M1202.96 161.521C1202.6 161.21 1202.32 160.642 1202.25 159.939C1202.65 160.292 1202.84 160.778 1202.96 161.521Z" fill="#070707"/>
<path d="M1203.58 135.526C1203.45 135.101 1203.52 134.483 1203.83 133.815C1203.98 134.287 1203.88 134.81 1203.58 135.526Z" fill="#070707"/>
<path d="M1204.04 165.513C1203.65 165.23 1203.31 164.682 1203.17 163.985C1203.61 164.308 1203.85 164.778 1204.04 165.513Z" fill="#070707"/>
<path d="M216.661 165.548C216.506 165.12 216.541 164.494 216.831 163.815C217.007 164.291 216.929 164.82 216.661 165.548Z" fill="#0C0C0C"/>
<path d="M1202.61 139.527C1202.43 139.126 1202.41 138.515 1202.63 137.833C1202.84 138.281 1202.81 138.8 1202.61 139.527Z" fill="#070707"/>
<path d="M995.774 141.883C995.985 143.856 995.862 145.948 995.599 148.392C995.452 146.497 995.446 144.25 995.774 141.883Z" fill="#070707"/>
<path d="M995.213 152.038C995.714 153.534 995.954 155.275 996.124 157.397C995.687 155.946 995.32 154.114 995.213 152.038Z" fill="#070707"/>
<path d="M997.183 165.021C997.949 166.248 998.496 167.681 999.023 169.446C998.324 168.261 997.643 166.744 997.183 165.021Z" fill="#070707"/>
<path d="M1162.25 173.673C1162.25 172.786 1162.58 171.797 1163.16 170.618C1163.14 171.475 1162.86 172.524 1162.25 173.673Z" fill="#070707"/>
<path d="M997.844 132.818C998.021 133.296 997.944 133.828 997.667 134.553C997.508 134.122 997.548 133.497 997.844 132.818Z" fill="#070707"/>
<path d="M996.233 160.946C996.658 161.289 996.881 161.773 997.029 162.518C996.646 162.215 996.338 161.651 996.233 160.946Z" fill="#070707"/>
<path d="M996.812 136.821C997.005 137.296 996.944 137.829 996.689 138.558C996.516 138.13 996.538 137.505 996.812 136.821Z" fill="#070707"/>
<path d="M978.435 156.655C978.526 156.837 978.037 156.758 977.817 156.87C977.846 156.813 978.095 156.643 978.435 156.655Z" fill="#070707"/>
</svg>
