<svg width="36" height="36" viewBox="0 0 36 36" fill="none" xmlns="http://www.w3.org/2000/svg">
<g filter="url(#filter0_d_416_71)">
<rect x="6" y="6" width="24" height="24" rx="12" fill="white" fill-opacity="0.5" shape-rendering="crispEdges"/>
<path d="M22.5002 10.2059C23.8576 10.9897 24.9868 12.1144 25.776 13.4687C26.5652 14.823 26.987 16.3599 26.9997 17.9273C27.0124 19.4947 26.6154 21.0383 25.8482 22.4051C25.081 23.772 23.9701 24.9148 22.6255 25.7204C21.2809 26.526 19.7492 26.9664 18.182 26.9982C16.6148 27.0299 15.0666 26.6518 13.6905 25.9012C12.3143 25.1507 11.1581 24.0538 10.3362 22.7191C9.51432 21.3844 9.05527 19.8581 9.0045 18.2915L9 17.9999L9.0045 17.7083C9.0549 16.154 9.5072 14.6393 10.3173 13.3118C11.1274 11.9843 12.2676 10.8894 13.6269 10.1338C14.9861 9.37818 16.5179 8.98766 18.073 9.0003C19.6281 9.01293 21.1534 9.4283 22.5002 10.2059ZM21.3365 15.5636C21.1815 15.4086 20.9753 15.3156 20.7566 15.3018C20.5378 15.288 20.3216 15.3546 20.1484 15.4889L20.0638 15.5636L17.1001 18.5264L15.9364 17.3636L15.8518 17.2889C15.6786 17.1547 15.4624 17.0882 15.2437 17.102C15.0251 17.1158 14.8189 17.2089 14.664 17.3638C14.5091 17.5188 14.416 17.7249 14.4022 17.9436C14.3884 18.1622 14.4548 18.3784 14.5891 18.5516L14.6638 18.6362L16.4638 20.4362L16.5484 20.5109C16.7062 20.6334 16.9003 20.6998 17.1001 20.6998C17.2999 20.6998 17.494 20.6334 17.6518 20.5109L17.7364 20.4362L21.3365 16.8362L21.4112 16.7516C21.5455 16.5784 21.612 16.3622 21.5983 16.1435C21.5845 15.9248 21.4914 15.7186 21.3365 15.5636Z" fill="black" fill-opacity="0.6"/>
</g>
<defs>
<filter id="filter0_d_416_71" x="0" y="0" width="36" height="36" filterUnits="userSpaceOnUse" color-interpolation-filters="sRGB">
<feFlood flood-opacity="0" result="BackgroundImageFix"/>
<feColorMatrix in="SourceAlpha" type="matrix" values="0 0 0 0 0 0 0 0 0 0 0 0 0 0 0 0 0 0 127 0" result="hardAlpha"/>
<feOffset/>
<feGaussianBlur stdDeviation="3"/>
<feComposite in2="hardAlpha" operator="out"/>
<feColorMatrix type="matrix" values="0 0 0 0 0 0 0 0 0 0 0 0 0 0 0 0 0 0 0.16 0"/>
<feBlend mode="normal" in2="BackgroundImageFix" result="effect1_dropShadow_416_71"/>
<feBlend mode="normal" in="SourceGraphic" in2="effect1_dropShadow_416_71" result="shape"/>
</filter>
</defs>
</svg>
